<svg width="0" height="0" class="hidden">
  <symbol fill="none" xmlns="http://www.w3.org/2000/svg" viewBox="0 0 10 18" id="arrow-next">
    <path fill-rule="evenodd" clip-rule="evenodd" d="M.366.616a1.25 1.25 0 011.768 0l7.5 7.5a1.25 1.25 0 010 1.768l-7.5 7.5a1.25 1.25 0 01-1.768-1.768L6.982 9 .366 2.384a1.25 1.25 0 010-1.768z" fill="#fff" fill-opacity=".8"></path>
  </symbol>
  <symbol fill="none" xmlns="http://www.w3.org/2000/svg" viewBox="0 0 10 18" id="arrow-prev">
    <path fill-rule="evenodd" clip-rule="evenodd" d="M9.634.616a1.25 1.25 0 010 1.768L3.018 9l6.616 6.616a1.25 1.25 0 01-1.768 1.768l-7.5-7.5a1.25 1.25 0 010-1.768l7.5-7.5a1.25 1.25 0 011.768 0z" fill="#fff" fill-opacity=".8"></path>
  </symbol>
  <symbol fill="none" xmlns="http://www.w3.org/2000/svg" viewBox="0 0 17 16" id="close">
    <path d="M10.414 8l6.243-6.23a1.034 1.034 0 000-1.466 1.04 1.04 0 00-1.468 0l-6.244 6.23L2.702.304a1.04 1.04 0 00-1.469 0 1.034 1.034 0 000 1.466L7.477 8l-6.244 6.23a1.037 1.037 0 101.469 1.466l6.243-6.23 6.244 6.23a1.037 1.037 0 001.468 0 1.034 1.034 0 000-1.466L10.414 8z" fill="#fff"></path>
  </symbol>
  <symbol fill="none" xmlns="http://www.w3.org/2000/svg" viewBox="0 0 20 20" id="fb">
    <path d="M10.001.002C4.479.002.002 4.479.002 10.001c0 4.99 3.656 9.126 8.437 9.879v-6.988h-2.54v-2.891h2.54V7.798c0-2.508 1.493-3.891 3.776-3.891 1.094 0 2.24.195 2.24.195v2.459h-1.264c-1.24 0-1.628.772-1.628 1.563v1.875h2.771l-.443 2.891h-2.328v6.988C16.344 19.129 20 14.992 20 10.001 20 4.479 15.523.002 10.001.002z" fill="#BDBDBD"></path>
  </symbol>
  <symbol fill="none" xmlns="http://www.w3.org/2000/svg" viewBox="0 0 14 14" id="home">
    <path fill-rule="evenodd" clip-rule="evenodd" d="M6.642.706a.583.583 0 01.716 0l5.25 4.084c.142.11.225.28.225.46v6.417a1.75 1.75 0 01-1.75 1.75H2.917a1.75 1.75 0 01-1.75-1.75V5.25c0-.18.083-.35.225-.46L6.642.706zm-4.309 4.83v6.13a.583.583 0 00.584.584h8.166a.583.583 0 00.584-.583V5.535L7 1.905l-4.667 3.63z" fill="#fff"></path>
    <path fill-rule="evenodd" clip-rule="evenodd" d="M4.667 7c0-.322.26-.583.583-.583h3.5c.322 0 .583.26.583.583v5.833a.583.583 0 11-1.166 0v-5.25H5.833v5.25a.583.583 0 11-1.166 0V7z" fill="#fff"></path>
  </symbol>
  <symbol fill="none" xmlns="http://www.w3.org/2000/svg" viewBox="0 0 176 19" id="horizontal-logo">
    <path d="M14.238 13.828c0 .649-.12 1.207-.363 1.676a3.61 3.61 0 01-.95 1.195 5.236 5.236 0 01-1.382.809 9.933 9.933 0 01-1.617.48c-.563.117-1.13.196-1.7.235a20.365 20.365 0 01-3.094 0 14.902 14.902 0 01-1.546-.176c-.516-.086-1.023-.2-1.523-.34a9.044 9.044 0 01-1.418-.55L.62 2.061c.438-.18.902-.34 1.395-.48.492-.148.992-.27 1.5-.363A15.144 15.144 0 015.05.996a13.5 13.5 0 013.152.023c.57.07 1.117.188 1.64.352a7.061 7.061 0 011.466.645c.453.257.847.578 1.183.96.344.383.61.829.797 1.337.195.507.293 1.093.293 1.757 0 .438-.063.848-.188 1.23a3.417 3.417 0 01-.539 1.032 3.43 3.43 0 01-.855.785 3.799 3.799 0 01-1.137.469c.508.133.969.328 1.383.586.422.258.777.57 1.066.937a4 4 0 01.68 1.243c.164.46.246.953.246 1.476zm-5.953-6.68c0-.226-.047-.418-.14-.574a1.244 1.244 0 00-.352-.398 1.326 1.326 0 00-.445-.223 1.485 1.485 0 00-.422-.07c-.156 0-.309.023-.457.07a4.126 4.126 0 00-.434.164l-.07 2.602c.18 0 .402-.016.668-.047a2.79 2.79 0 00.762-.2c.25-.109.46-.265.632-.468.172-.211.258-.496.258-.856zm-1.664 3.82a3.01 3.01 0 00-.656.071l-.047 2.672c.117.023.23.047.34.07.117.016.23.024.34.024.164 0 .343-.016.539-.047a1.75 1.75 0 00.55-.211c.172-.11.313-.254.422-.434.118-.18.176-.418.176-.715 0-.296-.058-.539-.176-.726a1.219 1.219 0 00-.41-.434 1.344 1.344 0 00-.539-.21 2.769 2.769 0 00-.539-.06zm21.094-2.437c0 .68-.047 1.36-.14 2.04a48.48 48.48 0 00-3.985.421l-3.961.563c.203.562.52 1.011.95 1.347.437.336.956.504 1.558.504.312 0 .652-.058 1.02-.176a8.853 8.853 0 001.113-.433c.367-.18.718-.371 1.054-.574.336-.204.625-.387.867-.551l-.562 5.32a5.098 5.098 0 01-.996.598 6.602 6.602 0 01-1.102.398c-.383.102-.77.176-1.16.223a9.63 9.63 0 01-1.148.07 6.75 6.75 0 01-2.121-.316 6.427 6.427 0 01-1.747-.88 6.73 6.73 0 01-1.359-1.347 7.841 7.841 0 01-.973-1.687 9.743 9.743 0 01-.585-1.934 10.73 10.73 0 01-.2-2.062c0-.727.067-1.453.2-2.18a11.12 11.12 0 01.597-2.098 9.125 9.125 0 011.02-1.863 7.362 7.362 0 011.441-1.512 6.43 6.43 0 011.852-1.007c.695-.243 1.46-.364 2.297-.364.695 0 1.328.098 1.898.293.578.188 1.09.453 1.535.797.453.336.844.738 1.172 1.207.336.469.61.985.82 1.547.22.555.38 1.145.48 1.77.11.617.165 1.246.165 1.886zm-4.688-.61a3.29 3.29 0 00-.07-.667 2.04 2.04 0 00-.234-.633 1.285 1.285 0 00-.41-.457 1.067 1.067 0 00-.645-.187c-.313 0-.59.085-.832.257a2.357 2.357 0 00-.61.633c-.171.25-.312.524-.421.82-.11.297-.192.57-.246.82l3.468-.327v-.258zM40.5 12c0 1.07-.188 1.996-.563 2.777a5.273 5.273 0 01-1.523 1.922c-.64.5-1.395.871-2.262 1.113a10.52 10.52 0 01-2.777.352c-.383 0-.805-.05-1.266-.152a16.57 16.57 0 01-1.382-.375c-.47-.157-.922-.32-1.36-.492-.43-.18-.812-.348-1.148-.504l.515-4.594a8.39 8.39 0 002.203.914 9.83 9.83 0 002.93.293c.211-.016.41-.05.598-.106.195-.062.36-.152.492-.27.133-.116.2-.284.2-.503a.532.532 0 00-.141-.375.958.958 0 00-.364-.258 1.905 1.905 0 00-.504-.152 4.704 4.704 0 00-.55-.082 5.848 5.848 0 00-.504-.024h-.375a5.14 5.14 0 01-1.84-.316 4.205 4.205 0 01-1.418-.89 4.13 4.13 0 01-.914-1.407 4.973 4.973 0 01-.328-1.84c0-.922.183-1.746.55-2.472a5.795 5.795 0 011.489-1.864 6.748 6.748 0 012.144-1.183 7.706 7.706 0 012.496-.41c.383 0 .778.015 1.184.046a11.364 11.364 0 012.39.41c.383.11.747.247 1.09.41l-.445 4.759c-.531-.18-1.09-.329-1.676-.446a8.027 8.027 0 00-1.699-.187 9.91 9.91 0 00-.398.011c-.157 0-.325.012-.504.036a4.328 4.328 0 00-.528.082 1.99 1.99 0 00-.48.164.874.874 0 00-.34.258.557.557 0 00-.117.386c.008.172.07.305.188.399.124.093.28.164.468.21.196.04.407.06.633.06.234 0 .465-.005.691-.013.227-.015.438-.027.633-.035a3.4 3.4 0 01.48-.011c.626.039 1.188.171 1.688.398s.922.527 1.266.902c.351.375.617.825.797 1.348.187.516.281 1.086.281 1.711zM53.39 1.477l-.117 4.968-3.492.14-.422 10.876-4.945.258-.445-10.875-3.492.187.14-5.531 12.774-.023zm81.071 5.718c0 .758-.113 1.43-.34 2.016a4.997 4.997 0 01-.937 1.547 5.53 5.53 0 01-1.383 1.113 9.343 9.343 0 01-1.711.738c-.602.188-1.227.329-1.875.422-.649.086-1.285.133-1.91.14v4.993h-5.461v-2.602c.008-.843.011-1.68.011-2.507.008-.836.012-1.676.012-2.52l.024-2.613a118.5 118.5 0 00.011-2.86c-.007-.953.012-1.914.059-2.882a20.97 20.97 0 016.094-.891c.601 0 1.203.05 1.804.152a8.339 8.339 0 011.723.457 7.337 7.337 0 011.535.797c.477.313.887.688 1.231 1.125.343.438.613.938.808 1.5.203.563.305 1.188.305 1.875zm-5.203.399c0-.508-.156-.903-.469-1.184-.305-.289-.703-.433-1.195-.433a3.04 3.04 0 00-.516.046 4.559 4.559 0 00-.492.094l-.141 3.422c.11.016.215.024.317.024h.316c.281 0 .551-.047.809-.141.265-.094.5-.227.703-.399.203-.18.363-.386.48-.62.125-.243.188-.512.188-.81zm16.148 4.195l-.492 5.203-9.867.774.375-16.735h6.094l-.868 10.758h4.758zm15.328 5.203l-5.812.75-.703-2.648h-2.672l-.586 2.648-5.977-.586 4.664-15.61 6.516-.327 4.57 15.773zm-6.937-5.484l-.891-4.078-.867 4.078h1.758zm21.726.562c0 .883-.011 1.758-.035 2.625-.015.86-.043 1.727-.082 2.602l-6.75-.117a95.26 95.26 0 00.61-4.137 33.86 33.86 0 00.257-4.184 14.958 14.958 0 00-.058-1.254 11.856 11.856 0 00-.106-.878 4.877 4.877 0 00-.175-.832 2.037 2.037 0 00-.27-.61c-.102-.164-.226-.246-.375-.246-.266 0-.492.078-.68.234a1.96 1.96 0 00-.457.61 3.88 3.88 0 00-.281.82 9.48 9.48 0 00-.164.914 18.77 18.77 0 00-.07.867c-.008.266-.012.485-.012.657a387.59 387.59 0 00-.094 4.125 371.504 371.504 0 01-.093 4.125l-5.977.257c.156-2.757.305-5.5.445-8.226.149-2.727.266-5.469.352-8.227l5.531-.28-.047 1.874c.219-.266.453-.516.703-.75.258-.234.532-.434.821-.598.289-.171.593-.304.914-.398a3.467 3.467 0 011.031-.152c.664 0 1.246.109 1.746.328.5.218.93.515 1.289.89.359.375.66.82.902 1.336.243.508.438 1.051.586 1.63.149.577.262 1.183.34 1.816.078.625.129 1.242.153 1.851.031.61.046 1.2.046 1.77v1.558z" fill="#333"></path>
    <path d="M71.156 1.477l-.117 4.968-3.492.14-.422 10.876-4.945.258-.446-10.875-3.492.187.14-5.531 12.774-.023zm14.918 7.546c0 .711-.082 1.399-.246 2.063a7.908 7.908 0 01-.715 1.851 7.54 7.54 0 01-1.125 1.594 7.052 7.052 0 01-1.488 1.23 7.312 7.312 0 01-1.793.81 7.39 7.39 0 01-2.063.28c-.703 0-1.375-.09-2.015-.269a7.815 7.815 0 01-1.781-.75 7.606 7.606 0 01-1.512-1.172 7.796 7.796 0 01-1.148-1.523 8.337 8.337 0 01-.739-1.805 8.089 8.089 0 01-.012-3.996 8.244 8.244 0 01.704-1.852 8.151 8.151 0 011.125-1.593 7.454 7.454 0 011.465-1.254 7.16 7.16 0 011.769-.82 6.757 6.757 0 012.004-.294c1.133 0 2.164.176 3.094.528.937.351 1.734.855 2.39 1.511a6.567 6.567 0 011.535 2.368c.368.922.551 1.953.551 3.093zm-5.203.305c0-.336-.05-.66-.152-.973a2.52 2.52 0 00-.422-.843 2.082 2.082 0 00-.703-.598 1.88 1.88 0 00-.95-.234c-.367 0-.695.066-.984.199a2.276 2.276 0 00-1.219 1.36 2.858 2.858 0 00-.164.972c0 .328.047.656.141.984.094.328.234.625.422.89.187.267.418.481.691.645.281.165.606.247.973.247s.695-.07.984-.211c.297-.149.547-.344.75-.586.203-.25.36-.535.469-.856.11-.32.164-.652.164-.996zM100.863 1.5c-.351 2.75-.652 5.488-.902 8.215-.25 2.719-.488 5.457-.715 8.215l-4.805.351.211-1.804c-.156.18-.34.335-.55.468a3.22 3.22 0 01-.657.328 4.466 4.466 0 01-.726.176 4.51 4.51 0 01-.715.035 4.017 4.017 0 01-1.5-.304 5.224 5.224 0 01-1.29-.797 6.519 6.519 0 01-1.054-1.16 8.551 8.551 0 01-.797-1.395 8.856 8.856 0 01-.492-1.5c-.11-.508-.164-1-.164-1.476 0-.704.012-1.43.035-2.18.031-.758.082-1.516.152-2.274.07-.757.16-1.507.27-2.25.117-.742.262-1.453.434-2.132.953.046 1.91.09 2.87.129.962.039 1.919.05 2.872.035l-.54 2.05c-.171.68-.327 1.368-.468 2.063-.14.687-.254 1.379-.34 2.074a17.168 17.168 0 00-.129 2.11c0 .164.008.398.024.703.015.304.054.605.117.902.07.297.172.559.305.785.14.219.335.328.585.328.297 0 .563-.125.797-.375.235-.258.442-.601.621-1.03.18-.43.332-.927.457-1.49.133-.562.243-1.148.329-1.757a29.61 29.61 0 00.222-1.863c.055-.625.094-1.211.118-1.758.03-.555.05-1.05.058-1.488.016-.438.023-.778.023-1.02a8.712 8.712 0 00-.046-.914 100.066 100.066 0 003.023.047h1.172a31.81 31.81 0 001.195-.047zm14.438 5.203c0 .61-.055 1.164-.164 1.664a4.89 4.89 0 01-.492 1.36c-.227.414-.52.796-.879 1.148a7.83 7.83 0 01-1.301 1.008l2.789 4.969-5.274 1.03-1.804-4.991-1.453.046-.211 4.876h-5.039c.039-1.782.074-3.555.105-5.32.039-1.766.082-3.54.129-5.321l.047-2.672c.016-.883.047-1.773.094-2.672a15.34 15.34 0 011.617-.504 14.268 14.268 0 011.594-.304 16.177 16.177 0 011.629-.153 30.188 30.188 0 011.699-.047c.89 0 1.75.125 2.578.375.836.242 1.574.61 2.215 1.102a5.495 5.495 0 011.535 1.84c.39.734.586 1.59.586 2.566zm-5.25.375a2.76 2.76 0 00-.141-.902 1.844 1.844 0 00-.398-.703 1.682 1.682 0 00-.657-.47 2.189 2.189 0 00-.914-.175c-.156 0-.308.012-.457.035a2.646 2.646 0 00-.433.082l-.188 4.36h.282c.335 0 .675-.043 1.019-.13.352-.085.664-.218.938-.398.281-.18.507-.41.679-.691.18-.281.27-.617.27-1.008z" fill="#EC1F46"></path>
  </symbol>
  <symbol fill="none" xmlns="http://www.w3.org/2000/svg" viewBox="0 0 20 20" id="inst">
    <path d="M10 20a9.811 9.811 0 01-3.887-.791c-1.237-.527-2.301-1.237-3.193-2.129-.892-.892-1.602-1.956-2.129-3.193A9.81 9.81 0 010 10c0-1.354.264-2.65.791-3.887S2.028 3.812 2.92 2.92c.892-.892 1.956-1.602 3.193-2.13A9.81 9.81 0 0110 0a9.81 9.81 0 013.887.791c1.237.527 2.301 1.237 3.193 2.129.892.892 1.602 1.956 2.129 3.193A9.811 9.811 0 0120 10c0 1.354-.264 2.65-.791 3.887s-1.237 2.301-2.129 3.193c-.892.892-1.956 1.602-3.193 2.129A9.811 9.811 0 0110 20zm5-13.75c0-.339-.12-.632-.361-.879A1.192 1.192 0 0013.75 5h-7.5c-.339 0-.632.124-.879.371S5 5.911 5 6.25V7.5h2.227c.755-.833 1.68-1.25 2.773-1.25 1.094 0 2.018.417 2.773 1.25H15V6.25zM7.5 10c0 .69.244 1.28.732 1.768A2.409 2.409 0 0010 12.5c.69 0 1.28-.244 1.768-.732A2.409 2.409 0 0012.5 10c0-.69-.244-1.28-.732-1.768A2.409 2.409 0 0010 7.5c-.69 0-1.28.244-1.768.732A2.409 2.409 0 007.5 10zM15 8.75h-1.484c.156.43.234.846.234 1.25 0 1.042-.365 1.927-1.094 2.656-.729.73-1.614 1.094-2.656 1.094s-1.927-.365-2.656-1.094C6.614 11.927 6.25 11.042 6.25 10c0-.404.078-.82.234-1.25H5v5c0 .352.12.648.361.889.241.24.537.361.889.361h7.5c.352 0 .648-.12.889-.361.24-.241.361-.537.361-.889v-5z" fill="#BDBDBD"></path>
  </symbol>
  <symbol fill="none" xmlns="http://www.w3.org/2000/svg" viewBox="0 0 18 14" id="mail">
    <path d="M15.667.333H2.333C1.417.333.675 1.083.675 2L.667 12c0 .917.75 1.667 1.666 1.667h13.334c.916 0 1.666-.75 1.666-1.667V2c0-.917-.75-1.667-1.666-1.667zm-.334 3.542L9.442 7.558a.843.843 0 01-.884 0L2.667 3.875a.708.708 0 11.75-1.2L9 6.167l5.583-3.492a.708.708 0 11.75 1.2z" fill="#BDBDBD"></path>
  </symbol>
  <symbol fill="none" xmlns="http://www.w3.org/2000/svg" viewBox="0 0 14 20" id="map-marker">
    <path d="M7 0C3.13 0 0 3.13 0 7c0 4.17 4.42 9.92 6.24 12.11.4.48 1.13.48 1.53 0C9.58 16.92 14 11.17 14 7c0-3.87-3.13-7-7-7zm0 9.5a2.5 2.5 0 110-5 2.5 2.5 0 010 5z" fill="#BDBDBD"></path>
  </symbol>
  <symbol fill="none" xmlns="http://www.w3.org/2000/svg" viewBox="0 0 14 14" id="map-pin">
    <path fill-rule="evenodd" clip-rule="evenodd" d="M7 1.167a4.667 4.667 0 00-4.667 4.666c0 1.808 1.176 3.561 2.466 4.922A17.178 17.178 0 007 12.701a17.178 17.178 0 002.202-1.946c1.289-1.36 2.465-3.114 2.465-4.922A4.667 4.667 0 007 1.167zm0 12.25l-.324.485-.001-.001-.004-.003-.014-.009-.048-.033c-.041-.029-.101-.07-.176-.125a18.327 18.327 0 01-2.481-2.174c-1.336-1.41-2.785-3.448-2.785-5.724a5.833 5.833 0 0111.666 0c0 2.276-1.449 4.315-2.784 5.724a18.333 18.333 0 01-2.658 2.299l-.048.033-.013.01-.004.002h-.002L7 13.418zm0 0l.324.485a.584.584 0 01-.648 0L7 13.417z" fill="#fff"></path>
    <path fill-rule="evenodd" clip-rule="evenodd" d="M7 4.667A1.167 1.167 0 107 7a1.167 1.167 0 000-2.333zM4.667 5.833a2.333 2.333 0 114.666 0 2.333 2.333 0 01-4.666 0z" fill="#fff"></path>
  </symbol>
  <symbol fill="none" xmlns="http://www.w3.org/2000/svg" viewBox="0 0 20 20" id="phone">
    <path d="M17.167 9.54h1.916c0-4.915-3.711-8.623-8.634-8.623v1.916c3.893 0 6.718 2.82 6.718 6.708z" fill="#BDBDBD"></path>
    <path d="M10.458 6.667c2.016 0 2.875.86 2.875 2.875h1.917c0-3.09-1.701-4.792-4.792-4.792v1.917zm3.28 5.216a.96.96 0 00-1.333.041l-2.294 2.359c-.552-.106-1.661-.452-2.804-1.591-1.142-1.143-1.488-2.256-1.59-2.804l2.356-2.295a.958.958 0 00.041-1.333l-3.54-3.893a.958.958 0 00-1.334-.084L1.16 4.067a.958.958 0 00-.277.622c-.015.24-.289 5.915 4.112 10.317 3.839 3.838 8.648 4.12 9.972 4.12.194 0 .313-.007.344-.009a.95.95 0 00.621-.279l1.783-2.08a.958.958 0 00-.083-1.333l-3.894-3.542z" fill="#BDBDBD"></path>
  </symbol>
  <symbol fill="none" xmlns="http://www.w3.org/2000/svg" viewBox="0 0 14 14" id="phone-call">
    <g clip-path="url(#clip0)">
      <path d="M11.667 13.358h-.175c-1.867-.233-3.734-.875-5.309-1.866a12.267 12.267 0 01-3.675-3.675A11.617 11.617 0 01.642 2.508c0-.466.116-.933.408-1.283.292-.35.7-.583 1.167-.642h1.925A1.76 1.76 0 015.892 2.1c.058.525.175 1.05.35 1.517.233.641.058 1.341-.409 1.866l-.408.409c.7 1.05 1.575 1.983 2.683 2.683l.409-.408a1.823 1.823 0 011.866-.409 6.39 6.39 0 001.517.35 1.761 1.761 0 011.517 1.75v1.75c0 .467-.175.934-.525 1.225-.35.292-.759.525-1.225.525zM4.142 1.75h-1.75c-.175 0-.35.117-.467.233-.058.117-.117.234-.117.409A10.972 10.972 0 003.5 7.175c.875 1.342 1.983 2.508 3.325 3.325a10.973 10.973 0 004.783 1.692c.234 0 .35-.059.467-.175a.53.53 0 00.175-.409v-1.75c0-.291-.233-.525-.525-.583-.583-.058-1.167-.233-1.75-.467-.233-.058-.467-.058-.642.117l-.758.758a.62.62 0 01-.7.117 9.572 9.572 0 01-3.733-3.733c-.059-.234 0-.525.175-.7l.758-.759c.117-.116.175-.408.117-.583-.234-.583-.35-1.167-.467-1.75 0-.292-.292-.525-.583-.525zm6.941 4.083a.568.568 0 01-.583-.466c-.175-.934-.933-1.634-1.867-1.867a.605.605 0 01-.466-.7.605.605 0 01.7-.467c1.4.292 2.508 1.342 2.741 2.742.059.292-.116.642-.466.7 0 0 0 .058-.059.058zm2.334-.058c-.292 0-.525-.233-.584-.525-.233-2.158-1.925-3.85-4.141-4.142a.683.683 0 01-.525-.641c0-.292.35-.525.641-.525 2.742.291 4.842 2.391 5.134 5.133.058.292-.175.583-.525.642.058.058 0 .058 0 .058z" fill="#fff"></path>
    </g>
    <defs>
      <clipPath id="clip0">
        <path fill="#fff" d="M0 0h14v14H0z"></path>
      </clipPath>
    </defs>
  </symbol>
  <symbol fill="none" xmlns="http://www.w3.org/2000/svg" viewBox="0 0 70 49" id="quote-left">
    <path opacity=".4" d="M65 .795H50L40 19.831v28.554h30V19.83H55L65 .795zm-40 0H10L0 19.831v28.554h30V19.83H15L25 .795z" fill="#F2F2F2"></path>
  </symbol>
  <symbol fill="none" xmlns="http://www.w3.org/2000/svg" viewBox="0 0 70 49" id="quote-right">
    <path opacity=".4" d="M5 48.289h15l10-19.036V.699H0v28.554h15L5 48.289zm40 0h15l10-19.036V.699H40v28.554h15L45 48.289z" fill="#F2F2F2"></path>
  </symbol>
  <symbol fill="none" xmlns="http://www.w3.org/2000/svg" viewBox="0 0 10 18" id="reviews-arrow-next">
    <path fill-rule="evenodd" clip-rule="evenodd" d="M.366.616a1.25 1.25 0 011.768 0l7.5 7.5a1.25 1.25 0 010 1.768l-7.5 7.5a1.25 1.25 0 01-1.768-1.768L6.982 9 .366 2.384a1.25 1.25 0 010-1.768z" fill="#828282"></path>
  </symbol>
  <symbol fill="none" xmlns="http://www.w3.org/2000/svg" viewBox="0 0 10 18" id="reviews-arrow-prev">
    <path fill-rule="evenodd" clip-rule="evenodd" d="M9.634.616a1.25 1.25 0 010 1.768L3.018 9l6.616 6.616a1.25 1.25 0 01-1.768 1.768l-7.5-7.5a1.25 1.25 0 010-1.768l7.5-7.5a1.25 1.25 0 011.768 0z" fill="#828282"></path>
  </symbol>
  <symbol fill="none" xmlns="http://www.w3.org/2000/svg" viewBox="0 0 16 16" id="search">
    <path fill-rule="evenodd" clip-rule="evenodd" d="M7.333 2.667a4.667 4.667 0 100 9.333 4.667 4.667 0 000-9.333zm-6 4.666a6 6 0 1112 0 6 6 0 01-12 0z" fill="#fff"></path>
    <path fill-rule="evenodd" clip-rule="evenodd" d="M10.629 10.629c.26-.26.682-.26.942 0l2.9 2.9a.667.667 0 11-.942.942l-2.9-2.9a.667.667 0 010-.942z" fill="#fff"></path>
  </symbol>
  <symbol fill="none" xmlns="http://www.w3.org/2000/svg" viewBox="0 0 8 8" id="star">
    <path fill-rule="evenodd" clip-rule="evenodd" d="M4 .333c.127 0 .243.072.299.186l.952 1.93 2.13.311a.333.333 0 01.185.569l-1.541 1.5.364 2.121a.333.333 0 01-.484.352L4 6.3 2.095 7.302a.333.333 0 01-.483-.352l.363-2.12-1.54-1.501a.333.333 0 01.184-.569l2.13-.311L3.7.519A.333.333 0 014 .333zM4 1.42L3.269 2.9a.333.333 0 01-.25.183l-1.636.24 1.183 1.152a.333.333 0 01.096.295l-.28 1.627 1.463-.769a.333.333 0 01.31 0l1.462.77-.279-1.628a.333.333 0 01.096-.295l1.183-1.153-1.635-.239a.333.333 0 01-.25-.182L4 1.42z" fill="#F2994A"></path>
    <path d="M2.333 5L1 3l2-.333L4 1l1 1.667 2 .666-1.333 1.334L6 7 4 6 2 7l.333-2z" fill="#F2994A"></path>
  </symbol>
  <symbol fill="none" xmlns="http://www.w3.org/2000/svg" viewBox="0 0 14 14" id="user">
    <path fill-rule="evenodd" clip-rule="evenodd" d="M2.604 9.02a2.917 2.917 0 012.063-.853h4.666a2.917 2.917 0 012.917 2.916v1.167a.583.583 0 11-1.167 0v-1.167a1.75 1.75 0 00-1.75-1.75H4.667a1.75 1.75 0 00-1.75 1.75v1.167a.583.583 0 11-1.167 0v-1.167c0-.773.307-1.515.854-2.062zM7 2.333a1.75 1.75 0 100 3.5 1.75 1.75 0 000-3.5zm-2.917 1.75a2.917 2.917 0 115.834 0 2.917 2.917 0 01-5.834 0z" fill="#fff"></path>
  </symbol>
  <symbol fill="none" xmlns="http://www.w3.org/2000/svg" viewBox="0 0 153 175" id="vertical-logo">
    <path d="M37.969 34.875c0 1.73-.323 3.219-.969 4.469a9.7 9.7 0 01-2.531 3.187c-1.063.875-2.292 1.594-3.688 2.157a26.48 26.48 0 01-4.312 1.28c-1.5.313-3.01.522-4.532.626-1.5.104-2.906.156-4.218.156-1.292 0-2.636-.052-4.032-.156a39.685 39.685 0 01-4.124-.469 38.179 38.179 0 01-4.063-.906 24.15 24.15 0 01-3.781-1.469L1.656 3.5a35.337 35.337 0 013.719-1.281 37.287 37.287 0 014-.969 40.38 40.38 0 014.094-.594 36.782 36.782 0 013.937-.219c1.48 0 2.969.094 4.469.282 1.52.187 2.98.5 4.375.937a18.83 18.83 0 013.906 1.719 12.172 12.172 0 013.157 2.563A10.947 10.947 0 0135.437 9.5c.521 1.354.782 2.917.782 4.688 0 1.166-.167 2.26-.5 3.28a9.11 9.11 0 01-1.438 2.75A9.147 9.147 0 0132 22.314c-.896.562-1.906.979-3.031 1.25a13.29 13.29 0 013.687 1.562 10.634 10.634 0 012.844 2.5c.792.98 1.396 2.083 1.813 3.313.437 1.229.656 2.541.656 3.937zM22.094 17.062c0-.604-.125-1.114-.375-1.53a3.318 3.318 0 00-.938-1.063 3.534 3.534 0 00-1.187-.594 3.96 3.96 0 00-1.125-.188c-.417 0-.823.063-1.219.188-.396.125-.781.27-1.156.438l-.188 6.937c.48 0 1.073-.042 1.781-.125a7.489 7.489 0 002.032-.531 4.586 4.586 0 001.687-1.25c.459-.563.688-1.323.688-2.282zM17.656 27.25c-.604 0-1.187.063-1.75.188l-.125 7.125c.313.062.615.124.906.187.313.042.615.063.907.063a9.08 9.08 0 001.437-.126 4.667 4.667 0 001.469-.562 3.515 3.515 0 001.125-1.156c.313-.48.469-1.115.469-1.907 0-.791-.157-1.437-.469-1.937-.292-.5-.656-.885-1.094-1.156a3.582 3.582 0 00-1.437-.563c-.521-.104-1-.156-1.438-.156zm56.25-6.5a39.75 39.75 0 01-.375 5.438 129.18 129.18 0 00-10.625 1.125l-10.562 1.5c.541 1.5 1.385 2.697 2.531 3.593 1.167.896 2.552 1.344 4.156 1.344.834 0 1.74-.156 2.719-.469 1-.312 1.99-.698 2.969-1.156.979-.48 1.916-.99 2.812-1.531a54.018 54.018 0 002.313-1.469l-1.5 14.188a13.607 13.607 0 01-2.656 1.593c-.938.438-1.917.792-2.938 1.063-1.02.27-2.052.468-3.094.593a25.692 25.692 0 01-3.062.188c-2.063 0-3.948-.281-5.657-.844a17.145 17.145 0 01-4.656-2.343 17.954 17.954 0 01-3.625-3.594 20.914 20.914 0 01-2.593-4.5 25.984 25.984 0 01-1.563-5.157 28.61 28.61 0 01-.531-5.5c0-1.937.177-3.875.531-5.812a29.7 29.7 0 011.594-5.594 24.345 24.345 0 012.718-4.969 19.632 19.632 0 013.844-4.03 17.147 17.147 0 014.938-2.688C53.448 1.073 55.49.75 57.719.75c1.854 0 3.541.26 5.062.781 1.542.5 2.907 1.209 4.094 2.125A13.9 13.9 0 0170 6.875 17.731 17.731 0 0172.188 11a22.79 22.79 0 011.28 4.719c.292 1.646.438 3.323.438 5.031zm-12.5-1.625c0-.583-.062-1.177-.187-1.781a5.442 5.442 0 00-.625-1.688 3.436 3.436 0 00-1.094-1.219c-.458-.333-1.031-.5-1.719-.5-.833 0-1.573.23-2.218.688-.626.438-1.167 1-1.626 1.688a9.86 9.86 0 00-1.124 2.187c-.292.792-.51 1.52-.657 2.188l9.25-.875v-.688zM108 30c0 2.854-.5 5.323-1.5 7.406-.979 2.063-2.333 3.771-4.062 5.125-1.709 1.334-3.72 2.323-6.032 2.969-2.291.625-4.76.938-7.406.938-1.02 0-2.146-.136-3.375-.407a44.317 44.317 0 01-3.688-1 73.327 73.327 0 01-3.624-1.312 85.99 85.99 0 01-3.063-1.344l1.375-12.25c1.77 1.063 3.73 1.875 5.875 2.438 2.167.541 4.292.812 6.375.812.396 0 .875-.01 1.438-.031a7.718 7.718 0 001.593-.282 3.619 3.619 0 001.313-.718c.354-.313.531-.76.531-1.344 0-.396-.125-.73-.375-1a2.557 2.557 0 00-.969-.688 5.078 5.078 0 00-1.344-.406c-.5-.104-.99-.177-1.468-.218-.48-.042-.927-.063-1.344-.063h-1c-1.792 0-3.427-.281-4.906-.844-1.459-.562-2.719-1.354-3.781-2.375-1.042-1.041-1.855-2.291-2.438-3.75-.583-1.479-.875-3.114-.875-4.906 0-2.458.49-4.656 1.469-6.594 1-1.958 2.323-3.614 3.969-4.969 1.666-1.375 3.572-2.427 5.718-3.156A20.549 20.549 0 0193.062.937c1.021 0 2.073.042 3.157.125 1.083.063 2.156.188 3.219.375 1.083.188 2.135.428 3.156.72 1.021.29 1.989.655 2.906 1.093l-1.188 12.688a35.894 35.894 0 00-4.468-1.188 21.408 21.408 0 00-4.531-.5c-.271 0-.626.01-1.063.031-.417 0-.865.031-1.344.094a11.54 11.54 0 00-1.406.219c-.48.104-.906.25-1.281.437a2.332 2.332 0 00-.906.688A1.48 1.48 0 0089 16.75c.02.458.188.813.5 1.063.333.25.75.437 1.25.562.52.104 1.083.156 1.688.156.624 0 1.24-.01 1.843-.031a58.902 58.902 0 011.688-.094 9.42 9.42 0 011.281-.031c1.667.104 3.167.458 4.5 1.063 1.333.604 2.458 1.406 3.375 2.406.937 1 1.646 2.198 2.125 3.593.5 1.375.75 2.896.75 4.563zm34.375-28.063l-.313 13.25-9.312.376-1.125 29-13.187.687-1.188-29-9.312.5.374-14.75 34.063-.063zM38 145.189c0 2.02-.302 3.812-.906 5.374a13.342 13.342 0 01-2.5 4.126 14.714 14.714 0 01-3.688 2.968 24.895 24.895 0 01-4.562 1.969c-1.604.5-3.271.875-5 1.125a42.9 42.9 0 01-5.094.375v13.313H1.687V167.5c.021-2.25.032-4.479.032-6.688.02-2.229.031-4.468.031-6.718l.063-6.969c.041-2.542.052-5.083.03-7.625-.02-2.542.032-5.104.157-7.688a58.142 58.142 0 018-1.781 56.11 56.11 0 018.25-.593c1.604 0 3.208.135 4.813.406 1.604.25 3.135.656 4.593 1.218a19.511 19.511 0 014.094 2.126 13.661 13.661 0 013.281 3c.917 1.166 1.636 2.5 2.157 4 .541 1.5.812 3.166.812 5zm-13.875 1.062c0-1.354-.417-2.406-1.25-3.156-.813-.771-1.875-1.156-3.188-1.156a8.06 8.06 0 00-1.375.124c-.458.063-.895.146-1.312.25l-.375 9.126c.292.041.573.062.844.062h.843c.75 0 1.47-.125 2.157-.375a5.914 5.914 0 001.875-1.063 5.452 5.452 0 001.281-1.656c.333-.646.5-1.364.5-2.156zm43.063 11.188l-1.313 13.874-26.313 2.063 1-44.625h16.25L54.5 157.438h12.688zm40.874 13.874l-15.5 2-1.874-7.062h-7.126L82 173.312l-15.938-1.562L78.5 130.125l17.375-.875 12.187 42.062zm-18.5-14.624l-2.374-10.876-2.313 10.876h4.688zm57.938 1.5c0 2.354-.031 4.687-.094 7a260.453 260.453 0 01-.218 6.937l-18-.313a256.915 256.915 0 001.624-11.031c.459-3.687.688-7.406.688-11.156a43.07 43.07 0 00-.156-3.344 30.867 30.867 0 00-.282-2.343 12.981 12.981 0 00-.468-2.219c-.188-.667-.427-1.209-.719-1.625-.271-.438-.604-.656-1-.656-.708 0-1.313.208-1.813.624-.479.417-.885.959-1.218 1.626a10.277 10.277 0 00-.75 2.187 24.786 24.786 0 00-.438 2.437 51.113 51.113 0 00-.187 2.313 60.925 60.925 0 00-.031 1.75 959.504 959.504 0 00-.25 11c-.063 3.625-.146 7.292-.25 11l-15.938.687c.417-7.354.812-14.666 1.188-21.937.395-7.271.708-14.583.937-21.937l14.75-.75-.125 5a21.001 21.001 0 011.875-2 12.144 12.144 0 012.187-1.594 10.533 10.533 0 012.438-1.063 9.243 9.243 0 012.75-.406c1.771 0 3.323.292 4.656.875a10.566 10.566 0 013.438 2.375c.958 1 1.76 2.187 2.406 3.563a23.76 23.76 0 011.562 4.343 38.49 38.49 0 01.907 4.844c.208 1.667.343 3.313.406 4.937a92.62 92.62 0 01.125 4.719v4.157z" fill="#fff"></path>
    <path d="M34.688 65.938l-.313 13.25-9.313.374-1.125 29-13.187.688-1.188-29-9.312.5L.625 66l34.063-.063zm39.78 20.124c0 1.896-.218 3.73-.656 5.5a21.096 21.096 0 01-1.906 4.938 20.1 20.1 0 01-3 4.25 18.783 18.783 0 01-3.969 3.281 19.501 19.501 0 01-4.78 2.157c-1.73.5-3.563.75-5.5.75-1.876 0-3.667-.24-5.376-.719a20.844 20.844 0 01-4.75-2 20.29 20.29 0 01-4.031-3.125 20.794 20.794 0 01-3.063-4.063 22.233 22.233 0 01-1.968-4.812 20.532 20.532 0 01-.688-5.344c0-1.813.219-3.583.657-5.313a21.98 21.98 0 011.874-4.937 21.734 21.734 0 013-4.25 19.881 19.881 0 013.907-3.344 19.097 19.097 0 014.718-2.187c1.688-.521 3.47-.781 5.344-.781 3.021 0 5.771.468 8.25 1.406 2.5.937 4.625 2.281 6.375 4.031 1.771 1.73 3.136 3.833 4.094 6.313.98 2.458 1.469 5.208 1.469 8.25zm-13.874.813a8.34 8.34 0 00-.407-2.594 6.716 6.716 0 00-1.124-2.25 5.55 5.55 0 00-1.876-1.594c-.729-.416-1.572-.624-2.53-.624-.98 0-1.855.177-2.626.53a6.072 6.072 0 00-2 1.47 6.312 6.312 0 00-1.25 2.156 7.62 7.62 0 00-.437 2.594c0 .874.125 1.75.375 2.624a7.8 7.8 0 001.125 2.376 6.041 6.041 0 001.843 1.718c.75.438 1.615.656 2.594.656.98 0 1.854-.187 2.625-.562a6.182 6.182 0 002-1.563 7.346 7.346 0 001.25-2.28c.292-.855.438-1.74.438-2.657zM113.906 66a618.978 618.978 0 00-2.406 21.906c-.667 7.25-1.302 14.552-1.906 21.906l-12.813.938.563-4.812a6.598 6.598 0 01-1.469 1.25 8.585 8.585 0 01-1.75.874c-.625.209-1.27.365-1.938.469a11.94 11.94 0 01-1.906.094 10.712 10.712 0 01-4-.813 13.928 13.928 0 01-3.437-2.124 17.419 17.419 0 01-2.813-3.094 22.82 22.82 0 01-2.125-3.719c-.562-1.313-1-2.646-1.312-4a18.682 18.682 0 01-.438-3.938c0-1.874.031-3.812.094-5.812a118.5 118.5 0 01.406-6.063c.188-2.02.427-4.02.719-6a64.104 64.104 0 011.156-5.687c2.542.125 5.094.24 7.656.344 2.563.104 5.115.135 7.657.094-.48 1.812-.959 3.635-1.438 5.468a117.285 117.285 0 00-1.25 5.5 71.148 71.148 0 00-.906 5.531 45.81 45.81 0 00-.344 5.626c0 .437.021 1.062.063 1.874.041.813.146 1.615.312 2.407.188.791.459 1.49.813 2.094.375.583.896.874 1.562.874.792 0 1.5-.333 2.125-1 .625-.687 1.177-1.604 1.656-2.75.48-1.145.886-2.468 1.22-3.968.353-1.5.645-3.063.874-4.688.25-1.646.448-3.302.594-4.969.146-1.666.25-3.229.313-4.687.083-1.48.135-2.802.156-3.969.041-1.166.062-2.073.062-2.719A23.228 23.228 0 0099.531 66a266.794 266.794 0 008.063.125h3.125a81.386 81.386 0 003.187-.125zm38.5 13.875c0 1.625-.146 3.104-.437 4.438a12.97 12.97 0 01-1.313 3.624A13.005 13.005 0 01148.312 91c-.958.938-2.114 1.833-3.468 2.688l7.437 13.25-14.062 2.75-4.813-13.313-3.875.125-.562 13h-13.438c.104-4.75.198-9.479.281-14.188.105-4.708.219-9.437.344-14.187l.125-7.125c.042-2.354.125-4.73.25-7.125a40.873 40.873 0 014.313-1.344 38.101 38.101 0 014.25-.812 43.1 43.1 0 014.344-.406 80.573 80.573 0 014.531-.126c2.375 0 4.666.334 6.875 1 2.229.646 4.198 1.626 5.906 2.938a14.636 14.636 0 014.094 4.906c1.041 1.959 1.562 4.24 1.562 6.844zm-14 1c0-.875-.125-1.677-.375-2.406a4.891 4.891 0 00-1.062-1.875 4.49 4.49 0 00-1.75-1.25c-.688-.313-1.5-.469-2.438-.469-.416 0-.823.031-1.219.094a7.086 7.086 0 00-1.156.219l-.5 11.624h.75c.896 0 1.802-.114 2.719-.343a7.951 7.951 0 002.5-1.063 5.682 5.682 0 001.813-1.844c.479-.75.718-1.645.718-2.687z" fill="#EC1F46"></path>
  </symbol>
  <symbol fill="none" xmlns="http://www.w3.org/2000/svg" viewBox="0 0 21 21" id="yt">
    <path d="M12.183 10.325l-2.358-1.1c-.206-.096-.375.01-.375.239v2.072c0 .228.169.335.375.24l2.357-1.1c.207-.097.207-.255.001-.351zM10.5.42C4.933.42.42 4.933.42 10.5S4.933 20.58 10.5 20.58s10.08-4.513 10.08-10.08S16.067.42 10.5.42zm0 14.175c-5.16 0-5.25-.465-5.25-4.095s.09-4.095 5.25-4.095 5.25.465 5.25 4.095-.09 4.095-5.25 4.095z" fill="#BDBDBD"></path>
  </symbol>
</svg>